<svg width="20" height="20" viewBox="0 0 20 20" fill="none" xmlns="http://www.w3.org/2000/svg">
<rect width="20" height="20" rx="3" fill="#EDEDED"/>
<path fill-rule="evenodd" clip-rule="evenodd" d="M10.1504 16.96C8.77649 16.96 8.138 16.7586 7.02816 15.9528C6.32616 16.8593 4.10315 17.5677 4.00621 16.3557C4.00621 15.4459 3.80563 14.677 3.57832 13.8377C3.30754 12.8036 3 11.652 3 9.98338C3 5.99815 6.25596 3 10.1136 3C13.9747 3 17 6.14588 17 10.0203C17.0062 11.8523 16.2885 13.6119 15.0043 14.913C13.7201 16.2141 11.9745 16.9503 10.1504 16.96ZM10.2072 6.44469C8.32854 6.34732 6.86436 7.65335 6.5401 9.70136C6.27267 11.3968 6.74736 13.4616 7.15185 13.5691C7.34574 13.6161 7.8338 13.2199 8.138 12.9144C8.64101 13.2634 9.22676 13.473 9.83618 13.5221C10.7719 13.5673 11.688 13.242 12.3875 12.616C13.087 11.9901 13.514 11.1135 13.5769 10.1748C13.6134 9.23402 13.2809 8.31645 12.6507 7.61949C12.0205 6.92253 11.1431 6.50188 10.2072 6.44804V6.44469Z" fill="#575757"/>
</svg>
