<svg width="20" height="20" viewBox="0 0 20 20" fill="none" xmlns="http://www.w3.org/2000/svg">
<rect width="20" height="20" rx="3" fill="#EDEDED"/>
<path fill-rule="evenodd" clip-rule="evenodd" d="M13.2988 16.9994C12.2891 16.9623 9.42758 16.5668 6.43072 13.5706C3.43455 10.5738 3.03979 7.71292 3.00192 6.70251C2.94583 5.1627 4.12522 3.66708 5.48762 3.08299C5.65169 3.01215 5.83135 2.98517 6.00898 3.00472C6.18661 3.02426 6.35611 3.08966 6.50084 3.19448C7.62273 4.01206 8.39684 5.24895 9.06157 6.22149C9.20782 6.43517 9.27036 6.69518 9.23725 6.95199C9.20415 7.2088 9.07772 7.44445 8.88206 7.61405L7.51405 8.63007C7.44796 8.67779 7.40143 8.74789 7.38312 8.82733C7.36481 8.90677 7.37595 8.99015 7.41448 9.062C7.72441 9.62505 8.27554 10.4637 8.9066 11.0947C9.53767 11.7258 10.4163 12.3134 11.0186 12.6584C11.0941 12.7008 11.183 12.7126 11.267 12.6915C11.351 12.6704 11.4237 12.6179 11.4701 12.5448L12.3606 11.1894C12.5244 10.9719 12.7659 10.8262 13.0346 10.7828C13.3033 10.7394 13.5784 10.8017 13.8023 10.9566C14.7888 11.6396 15.9402 12.4003 16.783 13.4795C16.8963 13.6252 16.9684 13.7988 16.9918 13.982C17.0151 14.1651 16.9887 14.3512 16.9155 14.5207C16.3286 15.8901 14.8435 17.0562 13.2988 16.9994Z" fill="#575757"/>
</svg>
