<svg width="20" height="20" viewBox="0 0 20 20" fill="none" xmlns="http://www.w3.org/2000/svg">
<rect width="20" height="20" rx="3" fill="#EDEDED"/>
<path fill-rule="evenodd" clip-rule="evenodd" d="M10.1925 18.8682C8.43428 18.8682 7.61721 18.6115 6.19697 17.5848C5.29862 18.7399 2.45386 19.6425 2.3298 18.0982C2.3298 16.9389 2.07313 15.9593 1.78224 14.8898C1.43574 13.5722 1.04218 12.1049 1.04218 9.97884C1.04218 4.90104 5.20879 1.08093 10.1454 1.08093C15.0863 1.08093 18.9578 5.08927 18.9578 10.0259C18.9657 12.3601 18.0473 14.6022 16.4039 16.2599C14.7606 17.9177 12.5267 18.8557 10.1925 18.8682ZM10.2652 5.46999C7.86105 5.34594 5.98736 7.01002 5.57241 9.6195C5.23018 11.7798 5.83763 14.4107 6.35525 14.5476C6.60337 14.6075 7.22793 14.1027 7.61721 13.7134C8.26091 14.1581 9.0105 14.4251 9.79036 14.4877C10.9878 14.5453 12.1601 14.1308 13.0552 13.3332C13.9504 12.5357 14.4968 11.4188 14.5773 10.2227C14.6241 9.02403 14.1985 7.85491 13.392 6.96688C12.5856 6.07884 11.4628 5.54287 10.2652 5.47427V5.46999Z" fill="#575757"/>
</svg>
