<svg width="20" height="20" viewBox="0 0 20 20" fill="none" xmlns="http://www.w3.org/2000/svg">
<rect width="20" height="20" rx="3" fill="#EDEDED"/>
<path fill-rule="evenodd" clip-rule="evenodd" d="M14.2414 18.9993C12.9432 18.9515 9.26404 18.4431 5.41092 14.5908C1.55871 10.7377 1.05115 7.05951 1.00247 5.76042C0.93035 3.78067 2.44671 1.85772 4.19837 1.10675C4.40931 1.01567 4.6403 0.98099 4.86869 1.00612C5.09707 1.03125 5.31499 1.11532 5.50108 1.25009C6.94351 2.30127 7.9388 3.89156 8.79344 5.14197C8.98149 5.41669 9.06189 5.751 9.01933 6.08118C8.97676 6.41136 8.81422 6.71435 8.56265 6.9324L6.80378 8.23871C6.7188 8.30007 6.65899 8.39019 6.63544 8.49233C6.6119 8.59446 6.62622 8.70168 6.67576 8.79405C7.07424 9.51797 7.78283 10.5962 8.59421 11.4076C9.40558 12.2189 10.5352 12.9744 11.3096 13.418C11.4067 13.4725 11.521 13.4877 11.629 13.4605C11.737 13.4334 11.8304 13.3659 11.8902 13.2719L13.0351 11.5293C13.2456 11.2497 13.5561 11.0623 13.9016 11.0066C14.2471 10.9508 14.6008 11.0308 14.8886 11.23C16.1571 12.108 17.6374 13.0862 18.721 14.4736C18.8667 14.6611 18.9594 14.8842 18.9894 15.1197C19.0194 15.3552 18.9855 15.5945 18.8914 15.8124C18.1368 17.5731 16.2274 19.0723 14.2414 18.9993Z" fill="#575757"/>
</svg>
