<svg width="20" height="20" viewBox="0 0 20 20" fill="none" xmlns="http://www.w3.org/2000/svg">
<g clip-path="url(#clip0_2001_13)">
<path fill-rule="evenodd" clip-rule="evenodd" d="M17.802 12.298C17.802 12.298 19.419 13.895 19.819 14.634C19.8273 14.6444 19.8334 14.6563 19.837 14.669C19.9997 14.9417 20.0407 15.1567 19.96 15.314C19.825 15.575 19.368 15.706 19.213 15.717H16.355C16.156 15.717 15.742 15.665 15.238 15.317C14.853 15.048 14.47 14.605 14.099 14.172C13.545 13.529 13.066 12.971 12.581 12.971C12.5198 12.9718 12.4591 12.9819 12.401 13.001C12.034 13.117 11.568 13.64 11.568 15.033C11.568 15.469 11.224 15.717 10.983 15.717H9.674C9.228 15.717 6.906 15.561 4.847 13.39C2.324 10.732 0.0579985 5.4 0.0359985 5.353C-0.105002 5.008 0.190998 4.82 0.510998 4.82H3.397C3.784 4.82 3.91 5.054 3.998 5.264C4.1 5.505 4.478 6.469 5.098 7.552C6.102 9.314 6.719 10.031 7.212 10.031C7.3046 10.0311 7.39562 10.007 7.476 9.961C8.12 9.607 8 7.307 7.97 6.833C7.97 6.741 7.969 5.806 7.639 5.354C7.403 5.03 7.001 4.904 6.758 4.858C6.823 4.764 6.961 4.62 7.138 4.535C7.579 4.315 8.376 4.283 9.167 4.283H9.606C10.464 4.295 10.686 4.35 10.998 4.429C11.626 4.579 11.638 4.986 11.583 6.372C11.567 6.768 11.55 7.214 11.55 7.739C11.55 7.851 11.545 7.976 11.545 8.103C11.526 8.814 11.501 9.615 12.003 9.944C12.0679 9.98506 12.1432 10.0066 12.22 10.006C12.394 10.006 12.915 10.006 14.328 7.581C14.948 6.51 15.428 5.247 15.461 5.152C15.489 5.099 15.573 4.95 15.675 4.89C15.7479 4.85224 15.8289 4.83301 15.911 4.834H19.306C19.676 4.834 19.927 4.89 19.976 5.03C20.058 5.257 19.96 5.95 18.41 8.046C18.149 8.395 17.92 8.697 17.719 8.961C16.314 10.805 16.314 10.898 17.802 12.298Z" fill="white"/>
</g>
<defs>
<clipPath id="clip0_2001_13">
<rect width="20" height="20" fill="white"/>
</clipPath>
</defs>
</svg>
