<svg width="41" height="16" viewBox="0 0 41 16" fill="none" xmlns="http://www.w3.org/2000/svg">
<path d="M32.6792 14.8995C32.571 14.7912 32.5103 14.6444 32.5103 14.4914C32.5103 14.3384 32.571 14.1916 32.6792 14.0833L38.6226 8.13894L0.577347 8.13894C0.424187 8.13894 0.277298 8.0781 0.168995 7.96979C0.0606918 7.86149 -0.000148773 7.7146 -0.000148773 7.56144C-0.000148773 7.40828 0.0606918 7.26139 0.168995 7.15309C0.277298 7.04479 0.424187 6.98394 0.577347 6.98394L38.6226 6.98395L32.6792 1.03958C32.5772 0.930105 32.5216 0.78531 32.5243 0.635699C32.5269 0.486088 32.5875 0.343342 32.6933 0.237534C32.7992 0.131727 32.9419 0.0711192 33.0915 0.0684795C33.2411 0.0658398 33.3859 0.121374 33.4954 0.223383L40.4253 7.15335C40.5335 7.26163 40.5942 7.40841 40.5942 7.56144C40.5942 7.71448 40.5335 7.86126 40.4253 7.96954L33.4954 14.8995C33.3871 15.0076 33.2403 15.0684 33.0873 15.0684C32.9343 15.0684 32.7875 15.0076 32.6792 14.8995Z" fill="black"/>
</svg>
