<svg width="41" height="41" viewBox="0 0 41 41" fill="none" xmlns="http://www.w3.org/2000/svg">
<path d="M1.99253 19.3313L36.1619 19.3313L20.8126 3.15482C20.2772 2.59021 20.2741 1.67077 20.8057 1.1021C21.3374 0.533339 22.2033 0.530226 22.739 1.09481L40.4402 19.7515L40.6118 19.9726C40.7619 20.21 40.8429 20.4913 40.8429 20.7816C40.8429 21.1682 40.6986 21.5391 40.4402 21.8116L22.739 40.4683C22.2033 41.0329 21.3374 41.0298 20.8057 40.461C20.2741 39.8923 20.2772 38.9729 20.8126 38.4083L36.1619 22.2318L1.99253 22.2318C1.23776 22.2318 0.626669 21.583 0.626669 20.7816C0.626669 19.9801 1.23776 19.3313 1.99253 19.3313Z" fill="#155ECB"/>
</svg>
