<svg width="750" height="500" viewBox="0 0 750 500" fill="none" xmlns="http://www.w3.org/2000/svg">
<mask id="mask0_343_3460" style="mask-type:luminance" maskUnits="userSpaceOnUse" x="0" y="0" width="750" height="500">
<path d="M750 0H0V500H750V0Z" fill="white"/>
</mask>
<g mask="url(#mask0_343_3460)">
<path d="M750 0H0V500H750V0Z" fill="white"/>
<path d="M414.351 -25.1201L448.211 38.6099L520.681 39.8699L461.321 17.5099L414.351 -25.1201Z" fill="url(#paint0_linear_343_3460)"/>
<path d="M414.351 -25.1201L452.841 31.0399L520.681 39.8699L414.351 -25.1201Z" fill="url(#paint1_linear_343_3460)"/>
<path d="M479.23 -12.0903L452.86 31.0497L520.7 39.8797L545.12 -0.0603333L479.23 -12.0903Z" fill="url(#paint2_linear_343_3460)"/>
<path d="M520.471 39.7402L554.331 103.48L626.791 104.73L567.441 82.3702L520.471 39.7402Z" fill="url(#paint3_linear_343_3460)"/>
<path d="M520.471 39.7402L558.951 95.9002L626.791 104.73L520.471 39.7402Z" fill="url(#paint4_linear_343_3460)"/>
<path d="M585.35 52.7803L558.98 95.9203L626.82 104.75L651.23 64.8003L585.35 52.7803Z" fill="url(#paint5_linear_343_3460)"/>
<path d="M626.58 104.61L660.44 168.34L732.91 169.6L673.55 147.23L626.58 104.61Z" fill="url(#paint6_linear_343_3460)"/>
<path d="M626.58 104.61L665.07 160.77L732.91 169.6L626.58 104.61Z" fill="url(#paint7_linear_343_3460)"/>
<path d="M691.46 117.64L665.09 160.78L732.93 169.61L757.35 129.67L691.46 117.64Z" fill="url(#paint8_linear_343_3460)"/>
<path d="M732.7 169.47L766.56 233.21L839.03 234.46L779.67 212.1L732.7 169.47Z" fill="url(#paint9_linear_343_3460)"/>
<path d="M732.7 169.47L771.19 225.63L839.03 234.46L732.7 169.47Z" fill="url(#paint10_linear_343_3460)"/>
<path d="M510.99 -63.98L544.84 -0.249969L617.31 1.01003L557.96 -21.35L510.99 -63.98Z" fill="url(#paint11_linear_343_3460)"/>
<path d="M510.99 -63.98L549.47 -7.81998L617.31 1.01003L510.99 -63.98Z" fill="url(#paint12_linear_343_3460)"/>
<path d="M575.87 -50.9502L549.5 -7.8102L617.34 1.01981L641.75 -38.9202L575.87 -50.9502Z" fill="url(#paint13_linear_343_3460)"/>
<path d="M617.101 0.879883L650.961 64.6199L723.431 65.8699L664.071 43.5099L617.101 0.879883Z" fill="url(#paint14_linear_343_3460)"/>
<path d="M617.101 0.879883L655.591 57.0399L723.431 65.8699L617.101 0.879883Z" fill="url(#paint15_linear_343_3460)"/>
<path d="M681.98 13.9097L655.61 57.0597L723.45 65.8897L747.87 25.9397L681.98 13.9097Z" fill="url(#paint16_linear_343_3460)"/>
<path d="M723.221 65.7402L757.081 129.48L829.551 130.74L770.191 108.37L723.221 65.7402Z" fill="url(#paint17_linear_343_3460)"/>
<path d="M723.221 65.7402L761.711 121.91L829.551 130.74L723.221 65.7402Z" fill="url(#paint18_linear_343_3460)"/>
<path d="M221.851 51.3301L255.711 115.07L328.181 116.33L268.821 93.9601L221.851 51.3301Z" fill="url(#paint19_linear_343_3460)"/>
<path d="M221.851 51.3301L260.341 107.5L328.181 116.33L221.851 51.3301Z" fill="url(#paint20_linear_343_3460)"/>
<path d="M286.73 64.3701L260.36 107.51L328.2 116.34L352.62 76.3901L286.73 64.3701Z" fill="url(#paint21_linear_343_3460)"/>
<path d="M327.971 116.2L361.831 179.93L434.291 181.19L374.941 158.83L327.971 116.2Z" fill="url(#paint22_linear_343_3460)"/>
<path d="M327.971 116.2L366.461 172.36L434.291 181.19L327.971 116.2Z" fill="url(#paint23_linear_343_3460)"/>
<path d="M392.85 129.23L366.48 172.37L434.32 181.21L458.73 141.26L392.85 129.23Z" fill="url(#paint24_linear_343_3460)"/>
<path d="M434.09 181.06L467.94 244.8L540.41 246.05L481.05 223.69L434.09 181.06Z" fill="url(#paint25_linear_343_3460)"/>
<path d="M434.09 181.06L472.57 237.23L540.41 246.05L434.09 181.06Z" fill="url(#paint26_linear_343_3460)"/>
<path d="M498.97 194.1L472.59 237.24L540.43 246.07L564.85 206.12L498.97 194.1Z" fill="url(#paint27_linear_343_3460)"/>
<path d="M212.37 -52.3901L246.23 11.3499L318.7 12.5999L259.34 -9.76015L212.37 -52.3901Z" fill="url(#paint28_linear_343_3460)"/>
<path d="M212.37 -52.3901L250.86 3.76985L318.7 12.5999L212.37 -52.3901Z" fill="url(#paint29_linear_343_3460)"/>
<path d="M277.25 -39.3604L250.88 3.78964L318.72 12.6196L343.14 -27.3304L277.25 -39.3604Z" fill="url(#paint30_linear_343_3460)"/>
<path d="M318.49 12.4702L352.35 76.2102L424.81 77.4702L365.46 55.1002L318.49 12.4702Z" fill="url(#paint31_linear_343_3460)"/>
<path d="M318.49 12.4702L356.98 68.6402L424.81 77.4702L318.49 12.4702Z" fill="url(#paint32_linear_343_3460)"/>
<path d="M383.37 25.5103L357 68.6502L424.84 77.4803L449.25 37.5303L383.37 25.5103Z" fill="url(#paint33_linear_343_3460)"/>
<path d="M424.601 77.3398L458.461 141.07L530.931 142.33L471.571 119.97L424.601 77.3398Z" fill="url(#paint34_linear_343_3460)"/>
<path d="M424.601 77.3398L463.091 133.5L530.931 142.33L424.601 77.3398Z" fill="url(#paint35_linear_343_3460)"/>
<path d="M489.49 90.3696L463.11 133.51L530.95 142.34L555.37 102.4L489.49 90.3696Z" fill="url(#paint36_linear_343_3460)"/>
<path d="M530.721 142.2L564.581 205.94L637.051 207.19L577.691 184.83L530.721 142.2Z" fill="url(#paint37_linear_343_3460)"/>
<path d="M530.721 142.2L569.211 198.36L637.051 207.19L530.721 142.2Z" fill="url(#paint38_linear_343_3460)"/>
<path d="M595.6 155.23L569.23 198.38L637.07 207.21L661.49 167.26L595.6 155.23Z" fill="url(#paint39_linear_343_3460)"/>
<path d="M636.84 207.07L670.7 270.8L743.16 272.06L683.81 249.69L636.84 207.07Z" fill="url(#paint40_linear_343_3460)"/>
<path d="M636.84 207.07L675.33 263.23L743.16 272.06L636.84 207.07Z" fill="url(#paint41_linear_343_3460)"/>
<path d="M701.72 220.1L675.35 263.24L743.19 272.07L767.6 232.12L701.72 220.1Z" fill="url(#paint42_linear_343_3460)"/>
<path d="M135.471 192.66L169.331 256.39L241.801 257.65L182.441 235.28L135.471 192.66Z" fill="url(#paint43_linear_343_3460)"/>
<path d="M135.471 192.66L173.961 248.82L241.801 257.65L135.471 192.66Z" fill="url(#paint44_linear_343_3460)"/>
<path d="M200.35 205.69L173.98 248.83L241.82 257.66L266.24 217.71L200.35 205.69Z" fill="url(#paint45_linear_343_3460)"/>
<path d="M241.59 257.52L275.44 321.25L347.91 322.51L288.56 300.15L241.59 257.52Z" fill="url(#paint46_linear_343_3460)"/>
<path d="M241.59 257.52L280.07 313.68L347.91 322.51L241.59 257.52Z" fill="url(#paint47_linear_343_3460)"/>
<path d="M306.47 270.55L280.1 313.69L347.94 322.53L372.35 282.58L306.47 270.55Z" fill="url(#paint48_linear_343_3460)"/>
<path d="M125.99 88.9302L159.85 152.67L232.31 153.92L172.96 131.56L125.99 88.9302Z" fill="url(#paint49_linear_343_3460)"/>
<path d="M125.99 88.9302L164.48 145.09L232.31 153.92L125.99 88.9302Z" fill="url(#paint50_linear_343_3460)"/>
<path d="M190.87 101.96L164.5 145.11L232.34 153.94L256.75 113.99L190.87 101.96Z" fill="url(#paint51_linear_343_3460)"/>
<path d="M232.11 153.79L265.96 217.53L338.43 218.79L279.08 196.42L232.11 153.79Z" fill="url(#paint52_linear_343_3460)"/>
<path d="M232.11 153.79L270.59 209.96L338.43 218.79L232.11 153.79Z" fill="url(#paint53_linear_343_3460)"/>
<path d="M296.99 166.83L270.62 209.97L338.45 218.8L362.87 178.85L296.99 166.83Z" fill="url(#paint54_linear_343_3460)"/>
<path d="M338.221 218.66L372.081 282.39L444.551 283.65L385.191 261.29L338.221 218.66Z" fill="url(#paint55_linear_343_3460)"/>
<path d="M338.221 218.66L376.711 274.82L444.551 283.65L338.221 218.66Z" fill="url(#paint56_linear_343_3460)"/>
<path d="M403.1 231.69L376.73 274.83L444.57 283.66L468.99 243.72L403.1 231.69Z" fill="url(#paint57_linear_343_3460)"/>
<path d="M444.34 283.52L478.2 347.26L550.66 348.51L491.31 326.15L444.34 283.52Z" fill="url(#paint58_linear_343_3460)"/>
<path d="M444.34 283.52L482.83 339.68L550.66 348.51L444.34 283.52Z" fill="url(#paint59_linear_343_3460)"/>
<path d="M509.22 296.55L482.85 339.7L550.69 348.53L575.11 308.58L509.22 296.55Z" fill="url(#paint60_linear_343_3460)"/>
<path d="M-55.7695 273.2L-21.9095 336.93L50.5605 338.19L-8.79953 315.82L-55.7695 273.2Z" fill="url(#paint61_linear_343_3460)"/>
<path d="M-55.7695 273.2L-17.2795 329.36L50.5605 338.19L-55.7695 273.2Z" fill="url(#paint62_linear_343_3460)"/>
<path d="M9.12024 286.23L-17.2598 329.37L50.5802 338.2L75.0002 298.25L9.12024 286.23Z" fill="url(#paint63_linear_343_3460)"/>
<path d="M50.3506 338.06L84.2106 401.79L156.681 403.05L97.3206 380.69L50.3506 338.06Z" fill="url(#paint64_linear_343_3460)"/>
<path d="M50.3506 338.06L88.8406 394.22L156.681 403.05L50.3506 338.06Z" fill="url(#paint65_linear_343_3460)"/>
<path d="M115.23 351.09L88.8604 394.24L156.7 403.06L181.12 363.12L115.23 351.09Z" fill="url(#paint66_linear_343_3460)"/>
<path d="M156.471 402.92L190.331 466.66L262.791 467.92L203.441 445.55L156.471 402.92Z" fill="url(#paint67_linear_343_3460)"/>
<path d="M156.471 402.92L194.951 459.08L262.791 467.92L156.471 402.92Z" fill="url(#paint68_linear_343_3460)"/>
<path d="M221.35 415.96L194.98 459.1L262.82 467.93L287.23 427.98L221.35 415.96Z" fill="url(#paint69_linear_343_3460)"/>
<path d="M262.59 467.79L296.44 531.52L368.91 532.78L309.55 510.42L262.59 467.79Z" fill="url(#paint70_linear_343_3460)"/>
<path d="M262.59 467.79L301.07 523.95L368.91 532.78L262.59 467.79Z" fill="url(#paint71_linear_343_3460)"/>
<path d="M327.47 480.82L301.09 523.96L368.93 532.79L393.35 492.85L327.47 480.82Z" fill="url(#paint72_linear_343_3460)"/>
<path d="M-65.25 169.47L-31.39 233.21L41.08 234.46L-18.28 212.1L-65.25 169.47Z" fill="url(#paint73_linear_343_3460)"/>
<path d="M-65.25 169.47L-26.76 225.63L41.08 234.46L-65.25 169.47Z" fill="url(#paint74_linear_343_3460)"/>
<path d="M-0.360245 182.5L-26.7402 225.65L41.0997 234.48L65.5198 194.53L-0.360245 182.5Z" fill="url(#paint75_linear_343_3460)"/>
<path d="M40.8701 234.33L74.7301 298.07L147.2 299.33L87.8401 276.96L40.8701 234.33Z" fill="url(#paint76_linear_343_3460)"/>
<path d="M40.8701 234.33L79.3601 290.5L147.2 299.33L40.8701 234.33Z" fill="url(#paint77_linear_343_3460)"/>
<path d="M105.75 247.37L79.3799 290.51L147.22 299.34L171.64 259.39L105.75 247.37Z" fill="url(#paint78_linear_343_3460)"/>
<path d="M146.99 299.2L180.85 362.93L253.31 364.19L193.96 341.83L146.99 299.2Z" fill="url(#paint79_linear_343_3460)"/>
<path d="M146.99 299.2L185.48 355.36L253.31 364.19L146.99 299.2Z" fill="url(#paint80_linear_343_3460)"/>
<path d="M211.87 312.23L185.5 355.37L253.34 364.2L277.75 324.26L211.87 312.23Z" fill="url(#paint81_linear_343_3460)"/>
<path d="M253.101 364.06L286.961 427.8L359.431 429.05L300.071 406.69L253.101 364.06Z" fill="url(#paint82_linear_343_3460)"/>
<path d="M253.101 364.06L291.591 420.22L359.431 429.05L253.101 364.06Z" fill="url(#paint83_linear_343_3460)"/>
<path d="M317.99 377.09L291.61 420.24L359.45 429.07L383.87 389.12L317.99 377.09Z" fill="url(#paint84_linear_343_3460)"/>
<path d="M359.221 428.93L393.081 492.66L465.551 493.92L406.191 471.55L359.221 428.93Z" fill="url(#paint85_linear_343_3460)"/>
<path d="M359.221 428.93L397.711 485.09L465.551 493.92L359.221 428.93Z" fill="url(#paint86_linear_343_3460)"/>
<path d="M424.1 441.96L397.73 485.1L465.57 493.93L489.99 453.99L424.1 441.96Z" fill="url(#paint87_linear_343_3460)"/>
<path d="M465.34 493.79L499.2 557.52L571.66 558.78L512.31 536.42L465.34 493.79Z" fill="url(#paint88_linear_343_3460)"/>
<path d="M465.34 493.79L503.83 549.95L571.66 558.78L465.34 493.79Z" fill="url(#paint89_linear_343_3460)"/>
<path d="M-36.0293 479.38L-2.1693 543.11L70.3007 544.37L10.9407 522.01L-36.0293 479.38Z" fill="url(#paint90_linear_343_3460)"/>
<path d="M-36.0293 479.38L2.46071 535.54L70.3007 544.37L-36.0293 479.38Z" fill="url(#paint91_linear_343_3460)"/>
<path d="M28.8504 492.41L2.48047 535.55L70.3204 544.39L94.7405 504.44L28.8504 492.41Z" fill="url(#paint92_linear_343_3460)"/>
<path d="M-45.5098 375.66L-11.6498 439.39L60.8102 440.65L1.46024 418.28L-45.5098 375.66Z" fill="url(#paint93_linear_343_3460)"/>
<path d="M-45.5098 375.66L-7.01976 431.82L60.8102 440.65L-45.5098 375.66Z" fill="url(#paint94_linear_343_3460)"/>
<path d="M19.37 388.69L-7 431.83L60.84 440.66L85.25 400.71L19.37 388.69Z" fill="url(#paint95_linear_343_3460)"/>
<path d="M60.6104 440.52L94.4604 504.25L166.93 505.51L107.57 483.15L60.6104 440.52Z" fill="url(#paint96_linear_343_3460)"/>
<path d="M60.6104 440.52L99.0904 496.68L166.93 505.51L60.6104 440.52Z" fill="url(#paint97_linear_343_3460)"/>
<path d="M125.49 453.55L99.1201 496.69L166.95 505.52L191.37 465.58L125.49 453.55Z" fill="url(#paint98_linear_343_3460)"/>
</g>
<defs>
<linearGradient id="paint0_linear_343_3460" x1="447.847" y1="39.7867" x2="467.616" y2="7.43897" gradientUnits="userSpaceOnUse">
<stop stop-color="#F6F8FA"/>
<stop offset="0.15" stop-color="#F0F2F4"/>
<stop offset="0.63" stop-color="#E0E2E4"/>
<stop offset="1" stop-color="#DADCDE"/>
</linearGradient>
<linearGradient id="paint1_linear_343_3460" x1="453.536" y1="30.4775" x2="467.313" y2="7.93388" gradientUnits="userSpaceOnUse">
<stop stop-color="#F3F5F7"/>
<stop offset="0.3" stop-color="#FBFBFC"/>
<stop offset="0.73" stop-color="white"/>
</linearGradient>
<linearGradient id="paint2_linear_343_3460" x1="472.452" y1="-0.762663" x2="525.773" y2="31.8232" gradientUnits="userSpaceOnUse">
<stop stop-color="#FAFAFA"/>
<stop offset="1" stop-color="#FAFAFA"/>
</linearGradient>
<linearGradient id="paint3_linear_343_3460" x1="553.978" y1="104.646" x2="573.747" y2="72.2981" gradientUnits="userSpaceOnUse">
<stop stop-color="#F6F8FA"/>
<stop offset="0.15" stop-color="#F0F2F4"/>
<stop offset="0.63" stop-color="#E0E2E4"/>
<stop offset="1" stop-color="#DADCDE"/>
</linearGradient>
<linearGradient id="paint4_linear_343_3460" x1="559.662" y1="95.3451" x2="573.444" y2="72.793" gradientUnits="userSpaceOnUse">
<stop stop-color="#F3F5F7"/>
<stop offset="0.3" stop-color="#FBFBFC"/>
<stop offset="0.73" stop-color="white"/>
</linearGradient>
<linearGradient id="paint5_linear_343_3460" x1="578.569" y1="64.1" x2="631.899" y2="96.6911" gradientUnits="userSpaceOnUse">
<stop stop-color="#FAFAFA"/>
<stop offset="1" stop-color="#FAFAFA"/>
</linearGradient>
<linearGradient id="paint6_linear_343_3460" x1="660.094" y1="169.508" x2="679.868" y2="137.151" gradientUnits="userSpaceOnUse">
<stop stop-color="#F6F8FA"/>
<stop offset="0.15" stop-color="#F0F2F4"/>
<stop offset="0.63" stop-color="#E0E2E4"/>
<stop offset="1" stop-color="#DADCDE"/>
</linearGradient>
<linearGradient id="paint7_linear_343_3460" x1="665.784" y1="160.198" x2="679.566" y2="137.646" gradientUnits="userSpaceOnUse">
<stop stop-color="#F3F5F7"/>
<stop offset="0.3" stop-color="#FBFBFC"/>
<stop offset="0.73" stop-color="white"/>
</linearGradient>
<linearGradient id="paint8_linear_343_3460" x1="684.699" y1="128.958" x2="738.02" y2="161.544" gradientUnits="userSpaceOnUse">
<stop stop-color="#FAFAFA"/>
<stop offset="1" stop-color="#FAFAFA"/>
</linearGradient>
<linearGradient id="paint9_linear_343_3460" x1="766.225" y1="234.367" x2="785.994" y2="202.019" gradientUnits="userSpaceOnUse">
<stop stop-color="#F6F8FA"/>
<stop offset="0.15" stop-color="#F0F2F4"/>
<stop offset="0.63" stop-color="#E0E2E4"/>
<stop offset="1" stop-color="#DADCDE"/>
</linearGradient>
<linearGradient id="paint10_linear_343_3460" x1="771.914" y1="225.057" x2="785.691" y2="202.514" gradientUnits="userSpaceOnUse">
<stop stop-color="#F3F5F7"/>
<stop offset="0.3" stop-color="#FBFBFC"/>
<stop offset="0.73" stop-color="white"/>
</linearGradient>
<linearGradient id="paint11_linear_343_3460" x1="544.485" y1="0.916363" x2="564.254" y2="-31.4314" gradientUnits="userSpaceOnUse">
<stop stop-color="#F6F8FA"/>
<stop offset="0.15" stop-color="#F0F2F4"/>
<stop offset="0.63" stop-color="#E0E2E4"/>
<stop offset="1" stop-color="#DADCDE"/>
</linearGradient>
<linearGradient id="paint12_linear_343_3460" x1="550.174" y1="-8.3929" x2="563.951" y2="-30.9365" gradientUnits="userSpaceOnUse">
<stop stop-color="#F3F5F7"/>
<stop offset="0.3" stop-color="#FBFBFC"/>
<stop offset="0.73" stop-color="white"/>
</linearGradient>
<linearGradient id="paint13_linear_343_3460" x1="569.09" y1="-39.633" x2="622.411" y2="-7.04723" gradientUnits="userSpaceOnUse">
<stop stop-color="#FAFAFA"/>
<stop offset="1" stop-color="#FAFAFA"/>
</linearGradient>
<linearGradient id="paint14_linear_343_3460" x1="650.616" y1="65.775" x2="670.385" y2="33.4272" gradientUnits="userSpaceOnUse">
<stop stop-color="#F6F8FA"/>
<stop offset="0.15" stop-color="#F0F2F4"/>
<stop offset="0.63" stop-color="#E0E2E4"/>
<stop offset="1" stop-color="#DADCDE"/>
</linearGradient>
<linearGradient id="paint15_linear_343_3460" x1="656.3" y1="56.4742" x2="670.082" y2="33.9221" gradientUnits="userSpaceOnUse">
<stop stop-color="#F3F5F7"/>
<stop offset="0.3" stop-color="#FBFBFC"/>
<stop offset="0.73" stop-color="white"/>
</linearGradient>
<linearGradient id="paint16_linear_343_3460" x1="675.207" y1="25.2289" x2="728.528" y2="57.8147" gradientUnits="userSpaceOnUse">
<stop stop-color="#FAFAFA"/>
<stop offset="1" stop-color="#FAFAFA"/>
</linearGradient>
<linearGradient id="paint17_linear_343_3460" x1="756.733" y1="130.637" x2="776.507" y2="98.2811" gradientUnits="userSpaceOnUse">
<stop stop-color="#F6F8FA"/>
<stop offset="0.15" stop-color="#F0F2F4"/>
<stop offset="0.63" stop-color="#E0E2E4"/>
<stop offset="1" stop-color="#DADCDE"/>
</linearGradient>
<linearGradient id="paint18_linear_343_3460" x1="762.422" y1="121.328" x2="776.205" y2="98.776" gradientUnits="userSpaceOnUse">
<stop stop-color="#F3F5F7"/>
<stop offset="0.3" stop-color="#FBFBFC"/>
<stop offset="0.73" stop-color="white"/>
</linearGradient>
<linearGradient id="paint19_linear_343_3460" x1="255.343" y1="116.265" x2="275.116" y2="83.9088" gradientUnits="userSpaceOnUse">
<stop stop-color="#F6F8FA"/>
<stop offset="0.15" stop-color="#F0F2F4"/>
<stop offset="0.63" stop-color="#E0E2E4"/>
<stop offset="1" stop-color="#DADCDE"/>
</linearGradient>
<linearGradient id="paint20_linear_343_3460" x1="261.032" y1="106.956" x2="274.809" y2="84.4123" gradientUnits="userSpaceOnUse">
<stop stop-color="#F3F5F7"/>
<stop offset="0.3" stop-color="#FBFBFC"/>
<stop offset="0.73" stop-color="white"/>
</linearGradient>
<linearGradient id="paint21_linear_343_3460" x1="279.947" y1="75.716" x2="333.268" y2="108.302" gradientUnits="userSpaceOnUse">
<stop stop-color="#FAFAFA"/>
<stop offset="1" stop-color="#FAFAFA"/>
</linearGradient>
<linearGradient id="paint22_linear_343_3460" x1="361.473" y1="181.124" x2="381.242" y2="148.776" gradientUnits="userSpaceOnUse">
<stop stop-color="#F6F8FA"/>
<stop offset="0.15" stop-color="#F0F2F4"/>
<stop offset="0.63" stop-color="#E0E2E4"/>
<stop offset="1" stop-color="#DADCDE"/>
</linearGradient>
<linearGradient id="paint23_linear_343_3460" x1="367.162" y1="171.815" x2="380.939" y2="149.271" gradientUnits="userSpaceOnUse">
<stop stop-color="#F3F5F7"/>
<stop offset="0.3" stop-color="#FBFBFC"/>
<stop offset="0.73" stop-color="white"/>
</linearGradient>
<linearGradient id="paint24_linear_343_3460" x1="386.078" y1="140.575" x2="439.399" y2="173.16" gradientUnits="userSpaceOnUse">
<stop stop-color="#FAFAFA"/>
<stop offset="1" stop-color="#FAFAFA"/>
</linearGradient>
<linearGradient id="paint25_linear_343_3460" x1="467.603" y1="245.983" x2="487.372" y2="213.635" gradientUnits="userSpaceOnUse">
<stop stop-color="#F6F8FA"/>
<stop offset="0.15" stop-color="#F0F2F4"/>
<stop offset="0.63" stop-color="#E0E2E4"/>
<stop offset="1" stop-color="#DADCDE"/>
</linearGradient>
<linearGradient id="paint26_linear_343_3460" x1="473.292" y1="236.673" x2="487.069" y2="214.13" gradientUnits="userSpaceOnUse">
<stop stop-color="#F3F5F7"/>
<stop offset="0.3" stop-color="#FBFBFC"/>
<stop offset="0.73" stop-color="white"/>
</linearGradient>
<linearGradient id="paint27_linear_343_3460" x1="492.199" y1="205.428" x2="545.521" y2="238.014" gradientUnits="userSpaceOnUse">
<stop stop-color="#FAFAFA"/>
<stop offset="1" stop-color="#FAFAFA"/>
</linearGradient>
<linearGradient id="paint28_linear_343_3460" x1="245.858" y1="12.5408" x2="265.632" y2="-19.8155" gradientUnits="userSpaceOnUse">
<stop stop-color="#F6F8FA"/>
<stop offset="0.15" stop-color="#F0F2F4"/>
<stop offset="0.63" stop-color="#E0E2E4"/>
<stop offset="1" stop-color="#DADCDE"/>
</linearGradient>
<linearGradient id="paint29_linear_343_3460" x1="251.547" y1="3.23158" x2="265.329" y2="-19.3206" gradientUnits="userSpaceOnUse">
<stop stop-color="#F3F5F7"/>
<stop offset="0.3" stop-color="#FBFBFC"/>
<stop offset="0.73" stop-color="white"/>
</linearGradient>
<linearGradient id="paint30_linear_343_3460" x1="270.454" y1="-28.0138" x2="323.775" y2="4.57205" gradientUnits="userSpaceOnUse">
<stop stop-color="#FAFAFA"/>
<stop offset="1" stop-color="#FAFAFA"/>
</linearGradient>
<linearGradient id="paint31_linear_343_3460" x1="351.98" y1="77.3947" x2="371.754" y2="45.0384" gradientUnits="userSpaceOnUse">
<stop stop-color="#F6F8FA"/>
<stop offset="0.15" stop-color="#F0F2F4"/>
<stop offset="0.63" stop-color="#E0E2E4"/>
<stop offset="1" stop-color="#DADCDE"/>
</linearGradient>
<linearGradient id="paint32_linear_343_3460" x1="357.67" y1="68.0855" x2="371.446" y2="45.5419" gradientUnits="userSpaceOnUse">
<stop stop-color="#F3F5F7"/>
<stop offset="0.3" stop-color="#FBFBFC"/>
<stop offset="0.73" stop-color="white"/>
</linearGradient>
<linearGradient id="paint33_linear_343_3460" x1="376.585" y1="36.8456" x2="429.906" y2="69.4314" gradientUnits="userSpaceOnUse">
<stop stop-color="#FAFAFA"/>
<stop offset="1" stop-color="#FAFAFA"/>
</linearGradient>
<linearGradient id="paint34_linear_343_3460" x1="458.112" y1="142.253" x2="477.88" y2="109.905" gradientUnits="userSpaceOnUse">
<stop stop-color="#F6F8FA"/>
<stop offset="0.15" stop-color="#F0F2F4"/>
<stop offset="0.63" stop-color="#E0E2E4"/>
<stop offset="1" stop-color="#DADCDE"/>
</linearGradient>
<linearGradient id="paint35_linear_343_3460" x1="463.801" y1="132.944" x2="477.577" y2="110.4" gradientUnits="userSpaceOnUse">
<stop stop-color="#F3F5F7"/>
<stop offset="0.3" stop-color="#FBFBFC"/>
<stop offset="0.73" stop-color="white"/>
</linearGradient>
<linearGradient id="paint36_linear_343_3460" x1="482.707" y1="101.699" x2="536.037" y2="134.29" gradientUnits="userSpaceOnUse">
<stop stop-color="#FAFAFA"/>
<stop offset="1" stop-color="#FAFAFA"/>
</linearGradient>
<linearGradient id="paint37_linear_343_3460" x1="564.234" y1="207.107" x2="584.002" y2="174.759" gradientUnits="userSpaceOnUse">
<stop stop-color="#F6F8FA"/>
<stop offset="0.15" stop-color="#F0F2F4"/>
<stop offset="0.63" stop-color="#E0E2E4"/>
<stop offset="1" stop-color="#DADCDE"/>
</linearGradient>
<linearGradient id="paint38_linear_343_3460" x1="569.923" y1="197.798" x2="583.7" y2="175.254" gradientUnits="userSpaceOnUse">
<stop stop-color="#F3F5F7"/>
<stop offset="0.3" stop-color="#FBFBFC"/>
<stop offset="0.73" stop-color="white"/>
</linearGradient>
<linearGradient id="paint39_linear_343_3460" x1="588.838" y1="166.558" x2="642.16" y2="199.143" gradientUnits="userSpaceOnUse">
<stop stop-color="#FAFAFA"/>
<stop offset="1" stop-color="#FAFAFA"/>
</linearGradient>
<linearGradient id="paint40_linear_343_3460" x1="670.364" y1="271.965" x2="690.132" y2="239.618" gradientUnits="userSpaceOnUse">
<stop stop-color="#F6F8FA"/>
<stop offset="0.15" stop-color="#F0F2F4"/>
<stop offset="0.63" stop-color="#E0E2E4"/>
<stop offset="1" stop-color="#DADCDE"/>
</linearGradient>
<linearGradient id="paint41_linear_343_3460" x1="676.053" y1="262.656" x2="689.83" y2="240.113" gradientUnits="userSpaceOnUse">
<stop stop-color="#F3F5F7"/>
<stop offset="0.3" stop-color="#FBFBFC"/>
<stop offset="0.73" stop-color="white"/>
</linearGradient>
<linearGradient id="paint42_linear_343_3460" x1="694.963" y1="231.425" x2="748.284" y2="264.01" gradientUnits="userSpaceOnUse">
<stop stop-color="#FAFAFA"/>
<stop offset="1" stop-color="#FAFAFA"/>
</linearGradient>
<linearGradient id="paint43_linear_343_3460" x1="168.974" y1="257.594" x2="188.742" y2="225.246" gradientUnits="userSpaceOnUse">
<stop stop-color="#F6F8FA"/>
<stop offset="0.15" stop-color="#F0F2F4"/>
<stop offset="0.63" stop-color="#E0E2E4"/>
<stop offset="1" stop-color="#DADCDE"/>
</linearGradient>
<linearGradient id="paint44_linear_343_3460" x1="174.658" y1="248.293" x2="188.44" y2="225.741" gradientUnits="userSpaceOnUse">
<stop stop-color="#F3F5F7"/>
<stop offset="0.3" stop-color="#FBFBFC"/>
<stop offset="0.73" stop-color="white"/>
</linearGradient>
<linearGradient id="paint45_linear_343_3460" x1="193.573" y1="217.053" x2="246.894" y2="249.639" gradientUnits="userSpaceOnUse">
<stop stop-color="#FAFAFA"/>
<stop offset="1" stop-color="#FAFAFA"/>
</linearGradient>
<linearGradient id="paint46_linear_343_3460" x1="275.098" y1="322.461" x2="294.872" y2="290.104" gradientUnits="userSpaceOnUse">
<stop stop-color="#F6F8FA"/>
<stop offset="0.15" stop-color="#F0F2F4"/>
<stop offset="0.63" stop-color="#E0E2E4"/>
<stop offset="1" stop-color="#DADCDE"/>
</linearGradient>
<linearGradient id="paint47_linear_343_3460" x1="280.788" y1="313.151" x2="294.57" y2="290.599" gradientUnits="userSpaceOnUse">
<stop stop-color="#F3F5F7"/>
<stop offset="0.3" stop-color="#FBFBFC"/>
<stop offset="0.73" stop-color="white"/>
</linearGradient>
<linearGradient id="paint48_linear_343_3460" x1="299.694" y1="281.906" x2="353.016" y2="314.492" gradientUnits="userSpaceOnUse">
<stop stop-color="#FAFAFA"/>
<stop offset="1" stop-color="#FAFAFA"/>
</linearGradient>
<linearGradient id="paint49_linear_343_3460" x1="159.481" y1="153.864" x2="179.249" y2="121.517" gradientUnits="userSpaceOnUse">
<stop stop-color="#F6F8FA"/>
<stop offset="0.15" stop-color="#F0F2F4"/>
<stop offset="0.63" stop-color="#E0E2E4"/>
<stop offset="1" stop-color="#DADCDE"/>
</linearGradient>
<linearGradient id="paint50_linear_343_3460" x1="165.17" y1="144.555" x2="178.947" y2="122.011" gradientUnits="userSpaceOnUse">
<stop stop-color="#F3F5F7"/>
<stop offset="0.3" stop-color="#FBFBFC"/>
<stop offset="0.73" stop-color="white"/>
</linearGradient>
<linearGradient id="paint51_linear_343_3460" x1="184.08" y1="113.323" x2="237.401" y2="145.909" gradientUnits="userSpaceOnUse">
<stop stop-color="#FAFAFA"/>
<stop offset="1" stop-color="#FAFAFA"/>
</linearGradient>
<linearGradient id="paint52_linear_343_3460" x1="265.612" y1="218.723" x2="285.38" y2="186.375" gradientUnits="userSpaceOnUse">
<stop stop-color="#F6F8FA"/>
<stop offset="0.15" stop-color="#F0F2F4"/>
<stop offset="0.63" stop-color="#E0E2E4"/>
<stop offset="1" stop-color="#DADCDE"/>
</linearGradient>
<linearGradient id="paint53_linear_343_3460" x1="271.296" y1="209.422" x2="285.078" y2="186.87" gradientUnits="userSpaceOnUse">
<stop stop-color="#F3F5F7"/>
<stop offset="0.3" stop-color="#FBFBFC"/>
<stop offset="0.73" stop-color="white"/>
</linearGradient>
<linearGradient id="paint54_linear_343_3460" x1="290.211" y1="178.182" x2="343.532" y2="210.768" gradientUnits="userSpaceOnUse">
<stop stop-color="#FAFAFA"/>
<stop offset="1" stop-color="#FAFAFA"/>
</linearGradient>
<linearGradient id="paint55_linear_343_3460" x1="371.738" y1="283.59" x2="391.511" y2="251.234" gradientUnits="userSpaceOnUse">
<stop stop-color="#F6F8FA"/>
<stop offset="0.15" stop-color="#F0F2F4"/>
<stop offset="0.63" stop-color="#E0E2E4"/>
<stop offset="1" stop-color="#DADCDE"/>
</linearGradient>
<linearGradient id="paint56_linear_343_3460" x1="377.427" y1="274.281" x2="391.209" y2="251.729" gradientUnits="userSpaceOnUse">
<stop stop-color="#F3F5F7"/>
<stop offset="0.3" stop-color="#FBFBFC"/>
<stop offset="0.73" stop-color="white"/>
</linearGradient>
<linearGradient id="paint57_linear_343_3460" x1="396.333" y1="243.036" x2="449.655" y2="275.622" gradientUnits="userSpaceOnUse">
<stop stop-color="#FAFAFA"/>
<stop offset="1" stop-color="#FAFAFA"/>
</linearGradient>
<linearGradient id="paint58_linear_343_3460" x1="477.859" y1="348.444" x2="497.627" y2="316.096" gradientUnits="userSpaceOnUse">
<stop stop-color="#F6F8FA"/>
<stop offset="0.15" stop-color="#F0F2F4"/>
<stop offset="0.63" stop-color="#E0E2E4"/>
<stop offset="1" stop-color="#DADCDE"/>
</linearGradient>
<linearGradient id="paint59_linear_343_3460" x1="483.548" y1="339.135" x2="497.325" y2="316.591" gradientUnits="userSpaceOnUse">
<stop stop-color="#F3F5F7"/>
<stop offset="0.3" stop-color="#FBFBFC"/>
<stop offset="0.73" stop-color="white"/>
</linearGradient>
<linearGradient id="paint60_linear_343_3460" x1="502.463" y1="307.894" x2="555.785" y2="340.48" gradientUnits="userSpaceOnUse">
<stop stop-color="#FAFAFA"/>
<stop offset="1" stop-color="#FAFAFA"/>
</linearGradient>
<linearGradient id="paint61_linear_343_3460" x1="-22.2627" y1="338.152" x2="-2.49423" y2="305.804" gradientUnits="userSpaceOnUse">
<stop stop-color="#F6F8FA"/>
<stop offset="0.15" stop-color="#F0F2F4"/>
<stop offset="0.63" stop-color="#E0E2E4"/>
<stop offset="1" stop-color="#DADCDE"/>
</linearGradient>
<linearGradient id="paint62_linear_343_3460" x1="-16.5788" y1="328.851" x2="-2.79667" y2="306.299" gradientUnits="userSpaceOnUse">
<stop stop-color="#F3F5F7"/>
<stop offset="0.3" stop-color="#FBFBFC"/>
<stop offset="0.73" stop-color="white"/>
</linearGradient>
<linearGradient id="paint63_linear_343_3460" x1="2.33659" y1="297.611" x2="55.6579" y2="330.197" gradientUnits="userSpaceOnUse">
<stop stop-color="#FAFAFA"/>
<stop offset="1" stop-color="#FAFAFA"/>
</linearGradient>
<linearGradient id="paint64_linear_343_3460" x1="83.863" y1="403.019" x2="103.637" y2="370.663" gradientUnits="userSpaceOnUse">
<stop stop-color="#F6F8FA"/>
<stop offset="0.15" stop-color="#F0F2F4"/>
<stop offset="0.63" stop-color="#E0E2E4"/>
<stop offset="1" stop-color="#DADCDE"/>
</linearGradient>
<linearGradient id="paint65_linear_343_3460" x1="89.552" y1="393.71" x2="103.329" y2="371.166" gradientUnits="userSpaceOnUse">
<stop stop-color="#F3F5F7"/>
<stop offset="0.3" stop-color="#FBFBFC"/>
<stop offset="0.73" stop-color="white"/>
</linearGradient>
<linearGradient id="paint66_linear_343_3460" x1="108.459" y1="362.465" x2="161.78" y2="395.051" gradientUnits="userSpaceOnUse">
<stop stop-color="#FAFAFA"/>
<stop offset="1" stop-color="#FAFAFA"/>
</linearGradient>
<linearGradient id="paint67_linear_343_3460" x1="189.985" y1="467.873" x2="209.754" y2="435.525" gradientUnits="userSpaceOnUse">
<stop stop-color="#F6F8FA"/>
<stop offset="0.15" stop-color="#F0F2F4"/>
<stop offset="0.63" stop-color="#E0E2E4"/>
<stop offset="1" stop-color="#DADCDE"/>
</linearGradient>
<linearGradient id="paint68_linear_343_3460" x1="195.674" y1="458.564" x2="209.451" y2="436.02" gradientUnits="userSpaceOnUse">
<stop stop-color="#F3F5F7"/>
<stop offset="0.3" stop-color="#FBFBFC"/>
<stop offset="0.73" stop-color="white"/>
</linearGradient>
<linearGradient id="paint69_linear_343_3460" x1="214.59" y1="427.324" x2="267.911" y2="459.909" gradientUnits="userSpaceOnUse">
<stop stop-color="#FAFAFA"/>
<stop offset="1" stop-color="#FAFAFA"/>
</linearGradient>
<linearGradient id="paint70_linear_343_3460" x1="296.115" y1="532.732" x2="315.883" y2="500.384" gradientUnits="userSpaceOnUse">
<stop stop-color="#F6F8FA"/>
<stop offset="0.15" stop-color="#F0F2F4"/>
<stop offset="0.63" stop-color="#E0E2E4"/>
<stop offset="1" stop-color="#DADCDE"/>
</linearGradient>
<linearGradient id="paint71_linear_343_3460" x1="301.804" y1="523.422" x2="315.581" y2="500.879" gradientUnits="userSpaceOnUse">
<stop stop-color="#F3F5F7"/>
<stop offset="0.3" stop-color="#FBFBFC"/>
<stop offset="0.73" stop-color="white"/>
</linearGradient>
<linearGradient id="paint72_linear_343_3460" x1="320.711" y1="492.177" x2="374.041" y2="524.768" gradientUnits="userSpaceOnUse">
<stop stop-color="#FAFAFA"/>
<stop offset="1" stop-color="#FAFAFA"/>
</linearGradient>
<linearGradient id="paint73_linear_343_3460" x1="-31.7556" y1="234.423" x2="-11.9871" y2="202.075" gradientUnits="userSpaceOnUse">
<stop stop-color="#F6F8FA"/>
<stop offset="0.15" stop-color="#F0F2F4"/>
<stop offset="0.63" stop-color="#E0E2E4"/>
<stop offset="1" stop-color="#DADCDE"/>
</linearGradient>
<linearGradient id="paint74_linear_343_3460" x1="-26.0665" y1="225.113" x2="-12.2896" y2="202.57" gradientUnits="userSpaceOnUse">
<stop stop-color="#F3F5F7"/>
<stop offset="0.3" stop-color="#FBFBFC"/>
<stop offset="0.73" stop-color="white"/>
</linearGradient>
<linearGradient id="paint75_linear_343_3460" x1="-7.15633" y1="193.882" x2="46.165" y2="226.468" gradientUnits="userSpaceOnUse">
<stop stop-color="#FAFAFA"/>
<stop offset="1" stop-color="#FAFAFA"/>
</linearGradient>
<linearGradient id="paint76_linear_343_3460" x1="74.37" y1="299.29" x2="94.1437" y2="266.934" gradientUnits="userSpaceOnUse">
<stop stop-color="#F6F8FA"/>
<stop offset="0.15" stop-color="#F0F2F4"/>
<stop offset="0.63" stop-color="#E0E2E4"/>
<stop offset="1" stop-color="#DADCDE"/>
</linearGradient>
<linearGradient id="paint77_linear_343_3460" x1="80.0591" y1="289.981" x2="93.8412" y2="267.428" gradientUnits="userSpaceOnUse">
<stop stop-color="#F3F5F7"/>
<stop offset="0.3" stop-color="#FBFBFC"/>
<stop offset="0.73" stop-color="white"/>
</linearGradient>
<linearGradient id="paint78_linear_343_3460" x1="98.9745" y1="258.741" x2="152.296" y2="291.327" gradientUnits="userSpaceOnUse">
<stop stop-color="#FAFAFA"/>
<stop offset="1" stop-color="#FAFAFA"/>
</linearGradient>
<linearGradient id="paint79_linear_343_3460" x1="180.501" y1="364.149" x2="200.274" y2="331.792" gradientUnits="userSpaceOnUse">
<stop stop-color="#F6F8FA"/>
<stop offset="0.15" stop-color="#F0F2F4"/>
<stop offset="0.63" stop-color="#E0E2E4"/>
<stop offset="1" stop-color="#DADCDE"/>
</linearGradient>
<linearGradient id="paint80_linear_343_3460" x1="186.19" y1="354.839" x2="199.967" y2="332.296" gradientUnits="userSpaceOnUse">
<stop stop-color="#F3F5F7"/>
<stop offset="0.3" stop-color="#FBFBFC"/>
<stop offset="0.73" stop-color="white"/>
</linearGradient>
<linearGradient id="paint81_linear_343_3460" x1="205.097" y1="323.594" x2="258.418" y2="356.18" gradientUnits="userSpaceOnUse">
<stop stop-color="#FAFAFA"/>
<stop offset="1" stop-color="#FAFAFA"/>
</linearGradient>
<linearGradient id="paint82_linear_343_3460" x1="286.623" y1="429.002" x2="306.392" y2="396.655" gradientUnits="userSpaceOnUse">
<stop stop-color="#F6F8FA"/>
<stop offset="0.15" stop-color="#F0F2F4"/>
<stop offset="0.63" stop-color="#E0E2E4"/>
<stop offset="1" stop-color="#DADCDE"/>
</linearGradient>
<linearGradient id="paint83_linear_343_3460" x1="292.312" y1="419.693" x2="306.089" y2="397.15" gradientUnits="userSpaceOnUse">
<stop stop-color="#F3F5F7"/>
<stop offset="0.3" stop-color="#FBFBFC"/>
<stop offset="0.73" stop-color="white"/>
</linearGradient>
<linearGradient id="paint84_linear_343_3460" x1="311.228" y1="388.453" x2="364.549" y2="421.039" gradientUnits="userSpaceOnUse">
<stop stop-color="#FAFAFA"/>
<stop offset="1" stop-color="#FAFAFA"/>
</linearGradient>
<linearGradient id="paint85_linear_343_3460" x1="392.754" y1="493.861" x2="412.523" y2="461.513" gradientUnits="userSpaceOnUse">
<stop stop-color="#F6F8FA"/>
<stop offset="0.15" stop-color="#F0F2F4"/>
<stop offset="0.63" stop-color="#E0E2E4"/>
<stop offset="1" stop-color="#DADCDE"/>
</linearGradient>
<linearGradient id="paint86_linear_343_3460" x1="398.443" y1="484.552" x2="412.22" y2="462.008" gradientUnits="userSpaceOnUse">
<stop stop-color="#F3F5F7"/>
<stop offset="0.3" stop-color="#FBFBFC"/>
<stop offset="0.73" stop-color="white"/>
</linearGradient>
<linearGradient id="paint87_linear_343_3460" x1="417.35" y1="453.307" x2="470.68" y2="485.898" gradientUnits="userSpaceOnUse">
<stop stop-color="#FAFAFA"/>
<stop offset="1" stop-color="#FAFAFA"/>
</linearGradient>
<linearGradient id="paint88_linear_343_3460" x1="498.876" y1="558.715" x2="518.644" y2="526.367" gradientUnits="userSpaceOnUse">
<stop stop-color="#F6F8FA"/>
<stop offset="0.15" stop-color="#F0F2F4"/>
<stop offset="0.63" stop-color="#E0E2E4"/>
<stop offset="1" stop-color="#DADCDE"/>
</linearGradient>
<linearGradient id="paint89_linear_343_3460" x1="504.565" y1="549.405" x2="518.341" y2="526.862" gradientUnits="userSpaceOnUse">
<stop stop-color="#F3F5F7"/>
<stop offset="0.3" stop-color="#FBFBFC"/>
<stop offset="0.73" stop-color="white"/>
</linearGradient>
<linearGradient id="paint90_linear_343_3460" x1="-2.5143" y1="544.343" x2="17.2541" y2="511.995" gradientUnits="userSpaceOnUse">
<stop stop-color="#F6F8FA"/>
<stop offset="0.15" stop-color="#F0F2F4"/>
<stop offset="0.63" stop-color="#E0E2E4"/>
<stop offset="1" stop-color="#DADCDE"/>
</linearGradient>
<linearGradient id="paint91_linear_343_3460" x1="3.16958" y1="535.042" x2="16.9517" y2="512.49" gradientUnits="userSpaceOnUse">
<stop stop-color="#F3F5F7"/>
<stop offset="0.3" stop-color="#FBFBFC"/>
<stop offset="0.73" stop-color="white"/>
</linearGradient>
<linearGradient id="paint92_linear_343_3460" x1="22.0849" y1="503.802" x2="75.4063" y2="536.388" gradientUnits="userSpaceOnUse">
<stop stop-color="#FAFAFA"/>
<stop offset="1" stop-color="#FAFAFA"/>
</linearGradient>
<linearGradient id="paint93_linear_343_3460" x1="-11.9987" y1="440.618" x2="7.76973" y2="408.271" gradientUnits="userSpaceOnUse">
<stop stop-color="#F6F8FA"/>
<stop offset="0.15" stop-color="#F0F2F4"/>
<stop offset="0.63" stop-color="#E0E2E4"/>
<stop offset="1" stop-color="#DADCDE"/>
</linearGradient>
<linearGradient id="paint94_linear_343_3460" x1="-6.30959" y1="431.309" x2="7.46729" y2="408.765" gradientUnits="userSpaceOnUse">
<stop stop-color="#F3F5F7"/>
<stop offset="0.3" stop-color="#FBFBFC"/>
<stop offset="0.73" stop-color="white"/>
</linearGradient>
<linearGradient id="paint95_linear_343_3460" x1="12.5972" y1="400.064" x2="65.9186" y2="432.65" gradientUnits="userSpaceOnUse">
<stop stop-color="#FAFAFA"/>
<stop offset="1" stop-color="#FAFAFA"/>
</linearGradient>
<linearGradient id="paint96_linear_343_3460" x1="94.1236" y1="505.472" x2="113.892" y2="473.124" gradientUnits="userSpaceOnUse">
<stop stop-color="#F6F8FA"/>
<stop offset="0.15" stop-color="#F0F2F4"/>
<stop offset="0.63" stop-color="#E0E2E4"/>
<stop offset="1" stop-color="#DADCDE"/>
</linearGradient>
<linearGradient id="paint97_linear_343_3460" x1="99.8075" y1="496.171" x2="113.59" y2="473.619" gradientUnits="userSpaceOnUse">
<stop stop-color="#F3F5F7"/>
<stop offset="0.3" stop-color="#FBFBFC"/>
<stop offset="0.73" stop-color="white"/>
</linearGradient>
<linearGradient id="paint98_linear_343_3460" x1="118.723" y1="464.931" x2="172.044" y2="497.517" gradientUnits="userSpaceOnUse">
<stop stop-color="#FAFAFA"/>
<stop offset="1" stop-color="#FAFAFA"/>
</linearGradient>
</defs>
</svg>
