<svg width="600" height="600" viewBox="0 0 600 600" fill="none" xmlns="http://www.w3.org/2000/svg">
<rect width="600" height="600" fill="#D9D9D9"/>
<path d="M220.998 399C215.297 399 210.541 397.094 206.73 393.283C202.918 389.471 201.008 384.711 201 379.002V220.998C201 215.297 202.91 210.541 206.73 206.73C210.549 202.918 215.305 201.008 220.998 201H379.014C384.707 201 389.463 202.91 393.283 206.73C397.102 210.549 399.008 215.305 399 220.998V379.014C399 384.707 397.094 389.463 393.283 393.283C389.471 397.102 384.711 399.008 379.002 399H220.998ZM220.998 386.625H379.014C380.912 386.625 382.657 385.833 384.249 384.249C385.841 382.665 386.633 380.916 386.625 379.002V220.998C386.625 219.092 385.833 217.343 384.249 215.751C382.665 214.159 380.916 213.367 379.002 213.375H220.998C219.092 213.375 217.343 214.167 215.751 215.751C214.159 217.335 213.367 219.084 213.375 220.998V379.014C213.375 380.912 214.167 382.657 215.751 384.249C217.335 385.841 219.08 386.633 220.986 386.625M244.312 355.687H357.593L322.609 309.034L290.248 349.97L268.592 323.797L244.312 355.687Z" fill="white"/>
</svg>
