<svg width="20" height="20" viewBox="0 0 20 20" fill="none" xmlns="http://www.w3.org/2000/svg">
<path d="M16.654 6.692C15.8127 6.692 15.082 6.42167 14.462 5.881C13.842 5.33967 13.4733 4.66133 13.356 3.846H6.619C6.51233 4.572 6.205 5.192 5.697 5.706C5.18833 6.22133 4.57167 6.53233 3.847 6.639V13.356C4.66167 13.474 5.33967 13.843 5.881 14.463C6.42233 15.083 6.69267 15.813 6.692 16.653C6.692 17.5863 6.36767 18.3777 5.719 19.027C5.07033 19.6757 4.27933 20 3.346 20C2.41267 20 1.62167 19.6757 0.973 19.027C0.324333 18.3783 0 17.5873 0 16.654C0 15.8127 0.270667 15.082 0.812 14.462C1.35267 13.842 2.03067 13.4733 2.846 13.356V6.639C2.03067 6.521 1.35267 6.15367 0.812 5.537C0.271333 4.92033 0.000666667 4.19033 0 3.347C0 2.41367 0.325667 1.62233 0.977 0.973C1.629 0.324333 2.41233 0 3.327 0C4.17033 0 4.90033 0.270667 5.517 0.812C6.13367 1.35333 6.50133 2.031 6.62 2.845H13.357C13.475 2.02967 13.844 1.35167 14.464 0.811C15.0827 0.270333 15.8123 0 16.653 0C17.5737 0 18.3617 0.327667 19.017 0.983C19.6723 1.63833 20 2.426 20 3.346C20 4.27933 19.6723 5.07033 19.017 5.719C18.3617 6.36767 17.574 6.692 16.654 6.692ZM3.334 19.02C3.99467 19.02 4.553 18.788 5.009 18.324C5.46433 17.86 5.692 17.3077 5.692 16.667C5.692 16.0063 5.46433 15.448 5.009 14.992C4.553 14.5367 3.99467 14.309 3.334 14.309C2.69333 14.309 2.141 14.5367 1.677 14.992C1.213 15.448 0.981 16.0063 0.981 16.667C0.981 17.3077 1.213 17.86 1.677 18.324C2.141 18.788 2.69333 19.02 3.334 19.02ZM3.334 5.713C3.99467 5.713 4.553 5.481 5.009 5.017C5.46433 4.55367 5.692 3.99633 5.692 3.345C5.692 2.69367 5.46433 2.14033 5.009 1.685C4.55367 1.22967 3.99533 1.00133 3.334 1C2.69333 1 2.141 1.228 1.677 1.684C1.213 2.13933 0.981 2.69267 0.981 3.344C0.981 3.99533 1.213 4.55267 1.677 5.016C2.141 5.47933 2.69333 5.711 3.334 5.711M16.654 20C15.7207 20 14.9297 19.6757 14.281 19.027C13.6323 18.3783 13.308 17.5917 13.308 16.667C13.308 15.7423 13.6323 14.9517 14.281 14.295C14.9297 13.6383 15.7207 13.3093 16.654 13.308C17.5873 13.3067 18.3783 13.6357 19.027 14.295C19.6757 14.9543 20 15.7453 20 16.668C20 17.5907 19.6757 18.377 19.027 19.027C18.3783 19.677 17.5873 20.0013 16.654 20ZM16.656 19.02C17.3073 19.02 17.8607 18.7877 18.316 18.323C18.772 17.859 19 17.3067 19 16.666C19 16.0053 18.772 15.447 18.316 14.991C17.8607 14.5357 17.3073 14.308 16.656 14.308C16.0047 14.308 15.4473 14.5357 14.984 14.991C14.52 15.447 14.288 16.0053 14.288 16.666C14.288 17.3067 14.52 17.859 14.984 18.323C15.4473 18.787 16.0047 19.019 16.656 19.019M16.656 5.712C17.3073 5.712 17.8607 5.48 18.316 5.016C18.772 4.55267 19 3.99533 19 3.344C19 2.69267 18.772 2.13933 18.316 1.684C17.86 1.22867 17.3067 1.00067 16.656 1C16.0053 0.999333 15.448 1.22733 14.984 1.684C14.5207 2.13933 14.289 2.69267 14.289 3.344C14.289 3.99533 14.5207 4.55267 14.984 5.016C15.4473 5.47933 16.0047 5.712 16.656 5.712Z" fill="white"/>
</svg>
